<svg width="158" height="70" viewBox="0 0 158 70" fill="none" xmlns="http://www.w3.org/2000/svg">
<path d="M14.8704 30.5349C9.0196 32.5092 0 55.8108 0 55.8108V69.9831H158V40.2949C158 40.2949 146.818 20.6799 144.257 18.5226C141.695 16.3652 135.069 15.7697 129.222 16.02C123.375 16.2703 118.64 3.00665 113.732 2.75639C108.825 2.50613 102.91 22.0262 98.2424 22.5267C93.5751 23.0272 85.5018 6.00973 79.7153 4.50819C73.9289 3.00665 67.4646 12.2661 61.416 12.5164C55.3674 12.7667 52.0841 -0.246693 45.8502 0.00356396C39.6163 0.253821 37.245 26.048 30.5121 31.7862C24.5683 36.8519 20.9534 28.4822 14.8704 30.5349Z" fill="url(#paint0_linear_193_5909)"/>
<defs>
<linearGradient id="paint0_linear_193_5909" x1="79" y1="0" x2="79" y2="69.9831" gradientUnits="userSpaceOnUse">
<stop stop-color="#F04438" stop-opacity="0.3"/>
<stop offset="1" stop-color="white" stop-opacity="0"/>
</linearGradient>
</defs>
</svg>
