<svg width="143" height="65" viewBox="0 0 143 65" fill="none" xmlns="http://www.w3.org/2000/svg">
<path d="M26.1015 46.9661C18.1178 47.8915 17.6112 55.5998 12.6274 57.8137C7.64359 60.0276 0.333008 53.5736 0.333008 53.5736V64.8335H142.06V36.3341C137.606 38.5456 135.675 49.1311 129.213 52.0995C122.751 55.0679 125.047 38.2008 119.651 29.8527C114.256 21.5046 109.998 42.8594 103.407 41.425C96.816 39.9906 95.6404 48.9012 90.829 47.1852C86.0175 45.4692 83.1545 36.2145 77.6385 33.3852C72.1224 30.5558 70.0891 6.73558 64.7542 1.52815C59.4193 -3.67928 57.2451 19.5915 51.87 20.6153C46.4948 21.639 43.5154 4.15594 38.9857 6.73558C34.4561 9.31521 34.0852 46.0406 26.1015 46.9661Z" fill="url(#paint0_linear_193_5951)"/>
<defs>
<linearGradient id="paint0_linear_193_5951" x1="71.1964" y1="0.769531" x2="71.1964" y2="64.8335" gradientUnits="userSpaceOnUse">
<stop stop-color="#F04438" stop-opacity="0.3"/>
<stop offset="0.0001" stop-color="#5DC264" stop-opacity="0.3"/>
<stop offset="1" stop-color="white" stop-opacity="0"/>
</linearGradient>
</defs>
</svg>
