<svg width="145" height="61" viewBox="0 0 145 61" fill="none" xmlns="http://www.w3.org/2000/svg">
<path d="M1.33301 54.5962C2.62839 55.6531 8.51135 60.9979 13.7858 58.6549C19.0603 56.3119 19.1993 47.9661 27.1015 47.9661C35.0038 47.9661 35.4561 10.3152 39.9858 7.73558C44.5154 5.15594 47.4949 22.639 52.87 21.6153C58.2452 20.5916 60.4194 -2.67928 65.7542 2.52815C71.0891 7.73558 73.1224 31.5558 78.6385 34.3852C84.1546 37.2145 86.4848 46.25 91.2962 47.9661C96.1077 49.6821 96.5866 42.425 104.407 42.425C112.227 42.425 115.306 22.5883 120.701 30.9364C126.096 39.2845 123.713 56.1563 130.175 53.1879C136.638 50.2195 138.061 40.1067 143.06 37.458" stroke="#5DC264" stroke-width="2" stroke-linecap="round" stroke-linejoin="round"/>
</svg>
